<mxfile host="app.diagrams.net" modified="2023-05-05T00:50:41.520Z" agent="Mozilla/5.0 (Macintosh; Intel Mac OS X 10_15_7) AppleWebKit/537.36 (KHTML, like Gecko) Chrome/111.0.0.0 Safari/537.36" version="21.2.9" etag="Mx8ZQGP66lTcEo0KakWu" type="github">
  <diagram name="Page-1" id="Ca1FPcGSA6en2Nod5Jka">
    <mxGraphModel>
      <root>
        <mxCell id="0" />
        <mxCell id="1" parent="0" />
      </root>
    </mxGraphModel>
  </diagram>
</mxfile>
